# xmcd CD database file
#
# Track frame offsets:
#	150
#	33164
#	57964
#	87577
#	110643
#	153596
#	186432
#	214921
#	252531
#	283627
#
# Disc length: 4190 seconds
#
# Revision: 0
# Processed by: cddbd v1.5.2PL0 Copyright (c) Steve Scherf et al.
# Submitted via: CDex 1.70beta2
#
DISCID=97105c0a
DTITLE=Hector Infanzón - In a personal mood
DYEAR=1993
DGENRE=Jazz
TTITLE0=Here's that rainy day
TTITLE1=Solar
TTITLE2=Well you needn't
TTITLE3=Hagdacefa
TTITLE4=Rincon Brujo
TTITLE5=Ojitos cristalinos
TTITLE6=Moment's notice
TTITLE7=Giant steps
TTITLE8=Confirmation
TTITLE9=In a sentimental mood
EXTD=YEAR: 1993
EXTT0=
EXTT1=
EXTT2=
EXTT3=
EXTT4=
EXTT5=
EXTT6=
EXTT7=
EXTT8=
EXTT9=
PLAYORDER=
